<svg xmlns="http://www.w3.org/2000/svg" width="230" height="230" style="shape-rendering:geometricPrecision;text-rendering:geometricPrecision;image-rendering:optimizeQuality;fill-rule:evenodd;clip-rule:evenodd"><path fill="#40c3fa" d="M81.5-.5h62v10h-6c.239 1.967-.094 3.8-1 5.5a114.44 114.44 0 0 1-12 3c2.34 1.45 4.84 1.617 7.5.5a306.016 306.016 0 0 0 29.5 3h-33c2.276 21.161 4.61 42.328 7 63.5l-.5 5.5a8142.545 8142.545 0 0 1-8.5-19c.172-.992-.162-1.658-1-2a367.393 367.393 0 0 0-17-45c0-.667-.333-1-1-1-11.154-.995-22.488-1.328-34-1h-22v-3h4v-4h4v-4h8v-4c6.623.702 11.29-1.965 14-8Z" style="opacity:1"/><path fill="#3bc8fe" d="M143.5-.5h86v18h-4c.593 4.18-.407 7.846-3 11a66.751 66.751 0 0 1-5.5-2l-1 1a14.72 14.72 0 0 0-1.5-5 29.834 29.834 0 0 1-6-4.5c-2.712-.826-5.045-.326-7 1.5-6.466.59-12.8 1.257-19 2h-21a306.016 306.016 0 0 1-29.5-3c-2.66 1.117-5.16.95-7.5-.5a114.44 114.44 0 0 0 12-3c.906-1.7 1.239-3.533 1-5.5h6v-10Z" style="opacity:1"/><path fill="#359bdb" d="M-.5-.5h20a282.002 282.002 0 0 1-9.5 19 84.64 84.64 0 0 1-2.5 17c.216 1.884.883 3.55 2 5-1.311 5.487-1.311 10.987 0 16.5-1.787 2.134-4.12 2.968-7 2.5v4h-3v-64Z" style="opacity:1"/><path fill="#39aae6" d="M19.5-.5h22c.237 2.712.237 5.212 0 7.5-1.244.456-2.077-.044-2.5-1.5-1.487.753-1.654 1.586-.5 2.5A9.47 9.47 0 0 0 36 9.5a4.452 4.452 0 0 0-1.5-2l-6 2c.252 4.317-.081 8.65-1 13h-4v3c1.175-.219 2.175.114 3 1-.41 2.491-1.576 4.491-3.5 6-.036-2.441-.87-4.441-2.5-6a254.525 254.525 0 0 1-4 21h3v4h-4v5l-8 5v1l-8 3v-2h3v-4c2.88.468 5.213-.366 7-2.5-1.311-5.513-1.311-11.013 0-16.5-1.117-1.45-1.784-3.116-2-5a84.64 84.64 0 0 0 2.5-17 282.002 282.002 0 0 0 9.5-19Z" style="opacity:1"/><path fill="#40b7ee" d="M41.5-.5h40c-2.71 6.035-7.377 8.702-14 8v4h-8v4h-4v4h-4v3h22l-8 2c-8.517.232-16.85.9-25 2v24h-4c-.992-7.482-1.325-15.148-1-23h-8a1277.762 1277.762 0 0 1 3 25c-.667 0-1 .333-1 1-2.582-.475-4.582.192-6 2h-3c-1.791-.134-3.458.2-5 1v-5h4v-4h-3a254.525 254.525 0 0 0 4-21c1.63 1.559 2.464 3.559 2.5 6 1.924-1.509 3.09-3.509 3.5-6-.825-.886-1.825-1.219-3-1v-3h4c.919-4.35 1.252-8.683 1-13l6-2a4.452 4.452 0 0 1 1.5 2A9.47 9.47 0 0 1 38.5 8c-1.154-.914-.987-1.747.5-2.5.423 1.456 1.256 1.956 2.5 1.5.237-2.288.237-4.788 0-7.5Z" style="opacity:1"/><path fill="#3bc0f8" d="M229.5 17.5v98h-5c-.495 3.497-2.328 4.497-5.5 3-1.029-6.834-1.196-13.834-.5-21 .836-17 1.502-34.166 2-51.5.205-5.059-.462-9.892-2-14.5-4.188-1.627-7.522-4.46-10-8.5a42.828 42.828 0 0 1-7-3.5c1.955-1.826 4.288-2.326 7-1.5a29.834 29.834 0 0 0 6 4.5 14.72 14.72 0 0 1 1.5 5l1-1a66.751 66.751 0 0 0 5.5 2c2.593-3.154 3.593-6.82 3-11h4Z" style="opacity:1"/><path fill="#73ccf2" d="M73.5 22.5c11.512-.328 22.846.005 34 1-14.007.077-28.007.41-42 1l8-2Z" style="opacity:1"/><path fill="#e8fafe" d="M161.5 21.5h21c6.905-.293 13.572.374 20 2h-7c-3.568.26-4.901 2.26-4 6 .901 3.74-.432 5.74-4 6v4h-12v4h4v4c-8.535-.594-16.868.073-25 2-3.875-2.72-7.209-2.054-10 2a45.898 45.898 0 0 0-4 10c-1.62-2.558-3.12-2.558-4.5 0 .099 10.654.266 21.32.5 32a4.932 4.932 0 0 1-3-.5 144.359 144.359 0 0 0-4-6.5c.431-.793.765-1.627 1-2.5a63.105 63.105 0 0 1-3.5-7.5 12.93 12.93 0 0 1-.5-5 8142.545 8142.545 0 0 0 8.5 19l.5-5.5c-2.39-21.172-4.724-42.339-7-63.5h33Z" style="opacity:1"/><path fill="#ddfcfe" d="M107.5 23.5c.667 0 1 .333 1 1a423.84 423.84 0 0 0-17.5 2c-16.757-.46-33.59-.46-50.5 0a234.42 234.42 0 0 1 25-2 1148.26 1148.26 0 0 1 42-1Z" style="opacity:1"/><path fill="#eaf7fd" d="M108.5 24.5a367.393 367.393 0 0 1 17 45c-.722-.418-1.222-1.084-1.5-2a63.744 63.744 0 0 1-4.5 10c1.465 2.984 1.131 5.65-1 8-5.778-8.448-13.111-15.114-22-20-5.778-5.727-12.778-9.394-21-11h-1c-.11-.617-.444-1.117-1-1.5-10.917-2.827-21.917-3.66-33-2.5v-24c16.91-.46 33.743-.46 50.5 0a423.84 423.84 0 0 1 17.5-2Z" style="opacity:1"/><path fill="#7c776e" d="M195.5 24.5c-.067 1.459.266 2.792 1 4-.989 5.475-1.322 11.142-1 17-1.333-7-1.333-14 0-21Z" style="opacity:1"/><path fill="#f5f6e0" d="M195.5 23.5h7c1.808-.009 3.475.491 5 1.5a146.264 146.264 0 0 1 10 10.5v4h-8l-2-1a39.456 39.456 0 0 1-11-10c-.734-1.208-1.067-2.541-1-4v-1Z" style="opacity:1"/><path fill="#eaf6fd" d="M191.5 29.5a3836.665 3836.665 0 0 1 4 64.5 5278.16 5278.16 0 0 0-1 27.5h-3v3l-16 10-8 1v3a220.352 220.352 0 0 1-12 1.5 6.802 6.802 0 0 1 3 1.5c-3.286.542-6.286 1.542-9 3-4.552-.051-7.219-2.384-8-7a118.255 118.255 0 0 1-2.5-18 7.248 7.248 0 0 0-2.5-2 53.812 53.812 0 0 1-4-12 31.147 31.147 0 0 1-2 2c-.891-.761-1.558-1.761-2-3-.825-.886-1.825-1.219-3-1a109.73 109.73 0 0 1-3.5-11c-2.556-.72-3.723-2.386-3.5-5v-2c2.131-2.35 2.465-5.016 1-8a63.744 63.744 0 0 0 4.5-10c.278.916.778 1.582 1.5 2 .838.342 1.172 1.008 1 2-.16 1.7.006 3.366.5 5a63.105 63.105 0 0 0 3.5 7.5 11.462 11.462 0 0 1-1 2.5 144.359 144.359 0 0 1 4 6.5c.948.483 1.948.65 3 .5-.234-10.68-.401-21.346-.5-32 1.38-2.558 2.88-2.558 4.5 0a45.898 45.898 0 0 1 4-10c2.791-4.054 6.125-4.72 10-2 8.132-1.927 16.465-2.594 25-2v-4h-4v-4h12v-4c3.568-.26 4.901-2.26 4-6Z" style="opacity:1"/><path fill="#21120d" d="M207.5 40.5c-1.224 15.822-1.224 31.49 0 47v4a481.528 481.528 0 0 0-2.5 40c-.577-7-1.077-14-1.5-21a2126.368 2126.368 0 0 1-.5-53 94.752 94.752 0 0 0-3.5-19 4.458 4.458 0 0 1 1.5-2 29.787 29.787 0 0 0 4.5 6 31.12 31.12 0 0 1 2-2Z" style="opacity:1"/><path fill="#e0f4fa" d="M36.5 50.5c-1.802.958-3.802 1.625-6 2a1277.762 1277.762 0 0 0-3-25h8c-.325 7.852.008 15.518 1 23Z" style="opacity:1"/><path fill="#49b2da" d="M201.5 19.5a42.828 42.828 0 0 0 7 3.5c2.478 4.04 5.812 6.873 10 8.5 1.538 4.608 2.205 9.441 2 14.5a2524.62 2524.62 0 0 1-2 51.5c-.315-19.867.018-39.7 1-59.5-.139-1.301-.805-2.134-2-2.5a146.264 146.264 0 0 0-10-10.5c-1.525-1.009-3.192-1.509-5-1.5-6.428-1.626-13.095-2.293-20-2 6.2-.743 12.534-1.41 19-2Z" style="opacity:1"/><path fill="#d6d2bb" d="M74.5 54.5a242.014 242.014 0 0 1-15-3c-7.52-.325-14.852.008-22 1l-8 1c0-.667.333-1 1-1 2.198-.375 4.198-1.042 6-2h4c11.083-1.16 22.083-.327 33 2.5.556.383.89.883 1 1.5Z" style="opacity:1"/><path fill="#281a0e" d="M196.5 28.5a39.456 39.456 0 0 0 11 10v2a31.12 31.12 0 0 0-2 2 29.787 29.787 0 0 1-4.5-6 4.458 4.458 0 0 0-1.5 2 94.752 94.752 0 0 1 3.5 19c-.053 17.689.113 35.356.5 53a168.522 168.522 0 0 1-2-6l-2-27c-.669-2.13-1.335-4.13-2-6a676.914 676.914 0 0 0-2-24v-2c-.322-5.858.011-11.525 1-17Z" style="opacity:1"/><path fill="#9ca383" d="M29.5 53.5v1c-1.791-.134-3.458.2-5 1h-1c1.418-1.808 3.418-2.475 6-2Z" style="opacity:1"/><path fill="#fde465" d="M45.5 52.5c6.594-.51 12.928.323 19 2.5a21.01 21.01 0 0 1-6 2.5 113.069 113.069 0 0 1-3 9 144.196 144.196 0 0 0 8 12.5 66.96 66.96 0 0 1 1.5 5.5c.204 6.717.704 13.383 1.5 20-.47.963-1.136.963-2 0a53.72 53.72 0 0 0-7-17c-1.189-.929-2.522-1.262-4-1 .262-1.478-.071-2.811-1-4a71.755 71.755 0 0 0-13-9.5 86.494 86.494 0 0 1-4-6.5c2.262-.845 2.929-2.178 2-4a54.937 54.937 0 0 0 2-7 23.313 23.313 0 0 1 6-3Z" style="opacity:1"/><path fill="#f0df9e" d="M59.5 51.5a242.014 242.014 0 0 0 15 3h1c1.4.6 2.4 1.6 3 3a68.905 68.905 0 0 1-19-6Z" style="opacity:1"/><path fill="#fed155" d="M37.5 52.5h8a23.313 23.313 0 0 0-6 3c-2.222-.322-4.056.345-5.5 2A69.513 69.513 0 0 0 28.5 70c1.108 2.112 2.608 3.946 4.5 5.5a8.434 8.434 0 0 1 .5 4c1.175-.219 2.175.114 3 1a33.678 33.678 0 0 1 6 10.5c4.525.382 6.191 2.882 5 7.5l6 1v4h4v8h3l7 18c-1.765.961-3.765 1.295-6 1v-7c-1.322.17-2.489-.163-3.5-1a18.437 18.437 0 0 1-.5-6h-4c-2.387-5.414-6.054-9.747-11-13-.929-1.189-1.262-2.522-1-4h-3c-1.377-7.317-4.377-13.817-9-19.5l2-1c-4.09-4.398-5.423-9.231-4-14.5.455-2.962 1.621-5.629 3.5-8 2.438-1.068 4.605-2.402 6.5-4Z" style="opacity:1"/><path fill="#fce775" d="M37.5 52.5c7.148-.992 14.48-1.325 22-1a68.905 68.905 0 0 0 19 6h1c.622 1.835 1.956 3.002 4 3.5-2 3.333-4 3.333-6 0-4.344-1.476-6.678.024-7 4.5h-3c-.667 5.615.666 10.615 4 15-1.602 2.737-2.436 5.737-2.5 9-.667 5-.667 10 0 15a152.585 152.585 0 0 1 3.5 13 3.647 3.647 0 0 1 1.5 1 60.94 60.94 0 0 1 .5 11h-6a120.956 120.956 0 0 0-1.5-13c-.827-1.162-1.66-2.329-2.5-3.5.81-2.783.81-5.617 0-8.5.864.963 1.53.963 2 0a224.246 224.246 0 0 1-1.5-20 66.96 66.96 0 0 0-1.5-5.5 144.196 144.196 0 0 1-8-12.5 113.069 113.069 0 0 0 3-9 21.01 21.01 0 0 0 6-2.5c-6.072-2.177-12.406-3.01-19-2.5h-8Z" style="opacity:1"/><path fill="#e5e0c4" d="M75.5 54.5c8.222 1.606 15.222 5.273 21 11a8.434 8.434 0 0 1-4-.5c-1.009-2.172-2.676-3.339-5-3.5a28.458 28.458 0 0 0-8-4h-1c-.6-1.4-1.6-2.4-3-3Z" style="opacity:1"/><path fill="#7b7d63" d="m20.5 55.5-9 6h-4l8-5c1.542-.8 3.209-1.134 5-1Z" style="opacity:1"/><path fill="#ce9f73" d="M211.5 40.5h5v28h-1a444.506 444.506 0 0 1-1-27c-1.291.237-2.291-.096-3-1Z" style="opacity:1"/><path fill="#b9af9a" d="M209.5 39.5h8v27h-1v-26h-5c-.992.172-1.658-.162-2-1Z" style="opacity:1"/><path fill="#fdeb87" d="M79.5 57.5a28.458 28.458 0 0 1 8 4c.531 2.124 1.865 3.624 4 4.5a8.434 8.434 0 0 0 4 .5v9a40.936 40.936 0 0 0-9 .5 99.673 99.673 0 0 0-3.5 6.5 166.153 166.153 0 0 1-9.5 9c-2.01 5.042-2.343 10.042-1 15 3.36 7.235 4.693 14.902 4 23h-2a60.94 60.94 0 0 0-.5-11 3.647 3.647 0 0 0-1.5-1 152.585 152.585 0 0 0-3.5-13c-.667-5-.667-10 0-15 .064-3.263.898-6.263 2.5-9-3.334-4.385-4.667-9.385-4-15h3c.322-4.476 2.656-5.976 7-4.5 2 3.333 4 3.333 6 0-2.044-.498-3.378-1.665-4-3.5Z" style="opacity:1"/><path fill="#3c221a" d="M207.5 40.5c.904.709 1.237 1.709 1 3v16c-.994 9.152-1.327 18.485-1 28-1.224-15.51-1.224-31.178 0-47Z" style="opacity:1"/><path fill="#a09993" d="M195.5 47.5a676.914 676.914 0 0 1 2 24v11c-1.599-11.461-2.265-23.128-2-35Z" style="opacity:1"/><path fill="#f1b243" d="M29.5 54.5c-2.264 2.93-4.93 5.597-8 8 .21.586.543 1.086 1 1.5-4.81 6.805-5.143 13.805-1 21-1.318 4.107-.985 8.107 1 12 2.175 2.49 3.842 5.324 5 8.5 2.62.476 4.62 1.809 6 4-1.05 1.602-.383 2.435 2 2.5-.837 1.011-1.17 2.178-1 3.5h-5c-2.082.124-3.582 1.124-4.5 3-1.174-2.171-3.007-3.171-5.5-3a60.94 60.94 0 0 0-.5-11A3473.978 3473.978 0 0 1 12.5 80 219.533 219.533 0 0 1 15 65.5a12.173 12.173 0 0 1 4.5-3.5l-2-1c.88-.708 1.547-1.542 2-2.5a29.512 29.512 0 0 1 5-3c1.542-.8 3.209-1.134 5-1Z" style="opacity:1"/><path fill="#6c5b33" d="M7.5 62.5c-1.278 1.25-2.278 2.75-3 4.5-1.634.493-3.3.66-5 .5v-2l8-3Z" style="opacity:1"/><path fill="#a8754f" d="m207.5 38.5 2 1c.342.838 1.008 1.172 2 1 .709.904 1.709 1.237 3 1 .06 9.013.393 18.013 1 27a686.2 686.2 0 0 1-3 47c.003 2.525.337 4.859 1 7v1c-1.113 1.446-1.28 3.113-.5 5 1.992.828 3.492 2.161 4.5 4-1.544-.203-2.878-.87-4-2a3.647 3.647 0 0 0-1.5 1l-1.5 12c.133-10.528-.2-21.195-1-32 1.88-4.897 2.88-10.231 3-16a545.806 545.806 0 0 1-4-52c.237-1.291-.096-2.291-1-3v-2Z" style="opacity:1"/><path fill="#7f5338" d="M208.5 43.5a545.806 545.806 0 0 0 4 52c-.12 5.769-1.12 11.103-3 16v-13a51.56 51.56 0 0 0 1-7 258.027 258.027 0 0 1-2-32v-16Z" style="opacity:1"/><path fill="#fcc14e" d="M37.5 52.5c-1.895 1.598-4.062 2.932-6.5 4-1.879 2.371-3.045 5.038-3.5 8-1.741 1.513-2.741 3.513-3 6 1.949 9.819 5.116 19.152 9.5 28 1.011.837 2.178 1.17 3.5 1-.644 4.445.69 8.111 4 11-1.302 1.701-2.969 2.868-5 3.5l3 .5c2.273-1.913 4.94-2.913 8-3 .135 3.007-.865 5.507-3 7.5-.001 3.043.832 3.21 2.5.5 4.282 2.785 7.782 6.452 10.5 11-1.705 1.803-3.538 2.469-5.5 2-1.836 1.631-1.336 2.298 1.5 2v1a53.773 53.773 0 0 0-10 2c-1.983.343-3.317-.324-4-2a19.555 19.555 0 0 1 3.5-4c.499-3.986.666-7.986.5-12a54.715 54.715 0 0 1-9-4c-.17-1.322.163-2.489 1-3.5-2.383-.065-3.05-.898-2-2.5-1.38-2.191-3.38-3.524-6-4-1.158-3.176-2.825-6.01-5-8.5-1.985-3.893-2.318-7.893-1-12-4.143-7.195-3.81-14.195 1-21a3.646 3.646 0 0 1-1-1.5c3.07-2.403 5.736-5.07 8-8v-1l8-1Z" style="opacity:1"/><path fill="#60a4bd" d="M217.5 35.5c1.195.366 1.861 1.199 2 2.5a909.687 909.687 0 0 0-1 59.5c-1.29 4.613-2.29 9.28-3 14v-10c1.688-11.455 2.355-23.122 2-35v-31Z" style="opacity:1"/><path fill="#d99e3d" d="M19.5 58.5c-.453.958-1.12 1.792-2 2.5l2 1a12.173 12.173 0 0 0-4.5 3.5A219.533 219.533 0 0 0 12.5 80c2.13 8.149 4.297 16.316 6.5 24.5a60.94 60.94 0 0 1 .5 11c2.493-.171 4.326.829 5.5 3 .918-1.876 2.418-2.876 4.5-3l-3 4h-3v4c-1.333 0-2 .667-2 2a63.98 63.98 0 0 1-5 5c-.946-1.575-.946-3.242 0-5a72.268 72.268 0 0 0-3-8 5.575 5.575 0 0 1 3 1c1.126-2.006.46-3.34-2-4a196.745 196.745 0 0 1-3.5-44c-.334-6.355 2.499-10.355 8.5-12Z" style="opacity:1"/><path fill="#e0ddd2" d="M96.5 65.5c8.889 4.886 16.222 11.552 22 20v2l-5-4c-5.645-5.98-11.312-11.98-17-18Z" style="opacity:1"/><path fill="#98a6a2" d="M216.5 66.5h1c.355 11.878-.312 23.545-2 35 .619-10.99.952-21.99 1-33v-2Z" style="opacity:1"/><path fill="#fed85a" d="M39.5 55.5a54.937 54.937 0 0 1-2 7c.929 1.822.262 3.155-2 4a86.494 86.494 0 0 0 4 6.5 71.755 71.755 0 0 1 13 9.5c.929 1.189 1.262 2.522 1 4 1.478-.262 2.811.071 4 1a53.72 53.72 0 0 1 7 17c.81 2.883.81 5.717 0 8.5.84 1.171 1.673 2.338 2.5 3.5a120.956 120.956 0 0 1 1.5 13h-1l-7-18h-3v-8h-4v-4l-6-1c1.191-4.618-.475-7.118-5-7.5a33.678 33.678 0 0 0-6-10.5c-.825-.886-1.825-1.219-3-1a8.434 8.434 0 0 0-.5-4c-1.892-1.554-3.392-3.388-4.5-5.5A69.513 69.513 0 0 1 34 57.5c1.444-1.655 3.278-2.322 5.5-2Z" style="opacity:1"/><path fill="#b07b32" d="M9.5 64.5a267.308 267.308 0 0 0-4 18 65.21 65.21 0 0 1 3 23c-.667 0-1 .333-1 1l-2-3c.538-5.902-.295-11.569-2.5-17a42.5 42.5 0 0 1 0-13 19.412 19.412 0 0 0 4.5-8c.683-.363 1.35-.696 2-1Z" style="opacity:1"/><path fill="#dcdcdb" d="M195.5 23.5v1c-1.333 7-1.333 14 0 21v2c-.265 11.872.401 23.539 2 35v19a1054.361 1054.361 0 0 0-2 22c-1.459-.067-2.792.266-4 1v-3h3c.309-9.165.643-18.331 1-27.5a3836.665 3836.665 0 0 0-4-64.5c-.901-3.74.432-5.74 4-6Z" style="opacity:1"/><path fill="#fced93" d="M87.5 61.5c2.324.161 3.991 1.328 5 3.5a8.434 8.434 0 0 0 4 .5c5.688 6.02 11.355 12.02 17 18a456.29 456.29 0 0 0 17 28c2.585 5.203 4.585 10.536 6 16-.193 3.311.807 5.978 3 8 .65 6.151 3.984 9.985 10 11.5-2.842.348-4.509 1.848-5 4.5-2.563-1.896-4.897-4.23-7-7 .487-.946.82-1.946 1-3-2.81-1.93-3.477-4.43-2-7.5-2.287-1.925-3.62-4.425-4-7.5-1.545-.952-3.212-1.285-5-1 1-5-1-7-6-6 .536-3.198-.131-5.865-2-8v-1c-1.639-6.07-5.472-8.07-11.5-6-1.202 2.177-1.702 4.511-1.5 7-2.376 1.012-3.376 2.845-3 5.5 1.014 3.191 2.681 6.025 5 8.5a9.86 9.86 0 0 1-6 1c-1.68-7.169-2.513-14.502-2.5-22-1.023-7.936-5.523-12.436-13.5-13.5-7.647-2.676-12.147-.176-13.5 7.5a32.438 32.438 0 0 0-.5 8c-1.343-4.958-1.01-9.958 1-15a166.153 166.153 0 0 0 9.5-9 99.673 99.673 0 0 1 3.5-6.5 40.936 40.936 0 0 1 9-.5v-9a8.434 8.434 0 0 1-4-.5c-2.135-.876-3.469-2.376-4-4.5Z" style="opacity:1"/><path fill="#b99678" d="M215.5 68.5h1a635.988 635.988 0 0 1-1 33v10c-1.914 3.184-2.58 6.851-2 11-.663-2.141-.997-4.475-1-7a686.2 686.2 0 0 0 3-47Z" style="opacity:1"/><path fill="#5e3c2a" d="M208.5 59.5a258.027 258.027 0 0 0 2 32h-3v-4c-.327-9.515.006-18.848 1-28Z" style="opacity:1"/><path fill="#c88e39" d="M20.5 55.5h4a29.512 29.512 0 0 0-5 3c-6.001 1.645-8.834 5.645-8.5 12a196.745 196.745 0 0 0 3.5 44c2.46.66 3.126 1.994 2 4a5.575 5.575 0 0 0-3-1c-.766-3.663-1.6-7.329-2.5-11-.383-.556-.883-.889-1.5-1h-1a65.21 65.21 0 0 0-3-23 267.308 267.308 0 0 1 4-18c1.406-.473 2.073-1.473 2-3l9-6Z" style="opacity:1"/><path fill="#fdca51" d="M27.5 64.5c-1.423 5.269-.09 10.102 4 14.5l-2 1c4.623 5.683 7.623 12.183 9 19.5h3c-.262 1.478.071 2.811 1 4 4.946 3.253 8.613 7.586 11 13h4a18.437 18.437 0 0 0 .5 6c1.011.837 2.178 1.17 3.5 1v7a310.678 310.678 0 0 0-4 3l-4 1c-2.836.298-3.336-.369-1.5-2 1.962.469 3.795-.197 5.5-2-2.718-4.548-6.218-8.215-10.5-11-1.668 2.71-2.501 2.543-2.5-.5 2.135-1.993 3.135-4.493 3-7.5-3.06.087-5.727 1.087-8 3l-3-.5c2.031-.632 3.698-1.799 5-3.5-3.31-2.889-4.644-6.555-4-11-1.322.17-2.489-.163-3.5-1-4.384-8.848-7.551-18.181-9.5-28 .259-2.487 1.259-4.487 3-6Z" style="opacity:1"/><path fill="#fefdf9" d="M83.5 95.5a66.808 66.808 0 0 1 9 6c2.317 6.74 3.484 13.74 3.5 21 .708.881 1.542 1.547 2.5 2 .838.342 1.172 1.008 1 2-.992-.172-1.658.162-2 1-4.357.086-8.69.42-13 1-.283-.789-.783-1.456-1.5-2-.336-8.692-2.502-16.692-6.5-24-.523-5.325 1.81-7.658 7-7Z" style="opacity:1"/><path fill="#e7ddb3" d="m113.5 83.5 5 4c-.223 2.614.944 4.28 3.5 5a109.73 109.73 0 0 0 3.5 11c1.175-.219 2.175.114 3 1 .442 1.239 1.109 2.239 2 3v4a456.29 456.29 0 0 1-17-28Z" style="opacity:1"/><path fill="#9e6d2e" d="M7.5 61.5h4c.073 1.527-.594 2.527-2 3-.65.304-1.317.637-2 1a19.412 19.412 0 0 1-4.5 8 42.5 42.5 0 0 0 0 13c2.205 5.431 3.038 11.098 2.5 17a84.94 84.94 0 0 1-.5 13l-2-4c-1.316 3.188-1.816 6.522-1.5 10-.438 1.006-1.104 1.006-2 0v-55c1.7.16 3.366-.007 5-.5.722-1.75 1.722-3.25 3-4.5v-1Z" style="opacity:1"/><path fill="#141110" d="M115.5 106.5c-1.572 4.437-.572 5.437 3 3 0 .667.333 1 1 1v1c.968 2.945 1.134 5.945.5 9-.816 1.323-1.983 1.989-3.5 2-3.726-1.453-6.059-4.119-7-8-.065-.438.101-.772.5-1a7.293 7.293 0 0 0 2 3l.5-1.5c-1.773-2.59-2.773-5.423-3-8.5 1.859-2.519 3.859-2.519 6 0Z" style="opacity:1"/><path fill="#61402b" d="M209.5 98.5v13a369.966 369.966 0 0 1 1 32c-1.071 4.489-1.071 8.822 0 13a308.607 308.607 0 0 1-4 3c-1.265-1.014-1.931-2.514-2-4.5a111.62 111.62 0 0 0 4-10.5 200.09 200.09 0 0 0-1-27 192.991 192.991 0 0 1 2-19Z" style="opacity:1"/><path fill="#f5f1c6" d="M119.5 110.5c-.667 0-1-.333-1-1a6.547 6.547 0 0 0-3-3c-2.141-2.519-4.141-2.519-6 0-.973 2.448-1.306 5.115-1 8l-2-3c-.202-2.489.298-4.823 1.5-7 6.028-2.07 9.861-.07 11.5 6Z" style="opacity:1"/><path fill="#fcf2b3" d="M102.5 126.5h-3c.172-.992-.162-1.658-1-2a74.072 74.072 0 0 0-1.5-19c-.792-2.144-2.292-3.477-4.5-4a66.808 66.808 0 0 0-9-6c-1.788-1.123-3.788-1.29-6-.5-4.428 7.688-3.594 14.854 2.5 21.5-.016 4.295.817 8.295 2.5 12-1.88.841-3.88 1.175-6 1 .693-8.098-.64-15.765-4-23a32.438 32.438 0 0 1 .5-8c1.353-7.676 5.853-10.176 13.5-7.5 7.977 1.064 12.477 5.564 13.5 13.5-.013 7.498.82 14.831 2.5 22Z" style="opacity:1"/><path fill="#6c695c" d="M115.5 106.5a6.547 6.547 0 0 1 3 3c-3.572 2.437-4.572 1.437-3-3Z" style="opacity:1"/><path fill="#6c605b" d="M109.5 106.5c.227 3.077 1.227 5.91 3 8.5l-.5 1.5a7.293 7.293 0 0 1-2-3c-.399.228-.565.562-.5 1h-1c-.306-2.885.027-5.552 1-8Z" style="opacity:1"/><path fill="#eedc77" d="m106.5 111.5 2 3h1c.941 3.881 3.274 6.547 7 8 3.176 1.773 4.843.773 5-3 5-1 7 1 6 6-.617-.111-1.117-.444-1.5-1a33.724 33.724 0 0 0-1.5 11h-1c.268-2.619-.065-5.119-1-7.5-8.327-.5-16.66-.666-25-.5.342-.838 1.008-1.172 2-1h3a9.86 9.86 0 0 0 6-1c-2.319-2.475-3.986-5.309-5-8.5-.376-2.655.624-4.488 3-5.5Z" style="opacity:1"/><path fill="#44ade9" d="M218.5 97.5c-.696 7.166-.529 14.166.5 21 3.172 1.497 5.005.497 5.5-3h5v29c-.617-.111-1.117-.444-1.5-1-.112-3.134-.612-5.467-1.5-7h-1c.268-1.599-.066-2.932-1-4-.838-.342-1.172-1.008-1-2a36.633 36.633 0 0 0-4-6.5 8.43 8.43 0 0 0-4-.5c-1.064-3.941-1.064-7.941 0-12 .71-4.72 1.71-9.387 3-14Z" style="opacity:1"/><path fill="#dcc3aa" d="M29.5 115.5h5a54.715 54.715 0 0 0 9 4 72.442 72.442 0 0 1-.5 12 19.555 19.555 0 0 0-3.5 4h-4v-1c6.897-2.816 8.397-7.483 4.5-14-4.245-3.95-8.411-3.95-12.5 0-.667 0-1-.333-1-1l3-4Z" style="opacity:1"/><path fill="#faf7d2" d="M92.5 101.5c2.208.523 3.708 1.856 4.5 4a74.072 74.072 0 0 1 1.5 19c-.958-.453-1.792-1.119-2.5-2-.016-7.26-1.183-14.26-3.5-21Z" style="opacity:1"/><path fill="#0b0a08" d="M35.5 134.5h-7c.854-3.557 1.52-6.89 2-10 0-1.333-.667-2-2-2-.896 1.006-1.562 1.006-2 0l1-2c4.089-3.95 8.255-3.95 12.5 0 3.897 6.517 2.397 11.184-4.5 14Z" style="opacity:1"/><path fill="#e3e1df" d="m141.5 137.5-2-2c-.103-3.136-1.103-5.802-3-8-1.415-5.464-3.415-10.797-6-16v-4a31.147 31.147 0 0 0 2-2 53.812 53.812 0 0 0 4 12 7.248 7.248 0 0 1 2.5 2c.374 6.08 1.207 12.08 2.5 18Z" style="opacity:1"/><path fill="#7a9ead" d="M215.5 111.5c-1.064 4.059-1.064 8.059 0 12h-2v-1c-.58-4.149.086-7.816 2-11Z" style="opacity:1"/><path fill="#e6d5be" d="M119.5 111.5c1.869 2.135 2.536 4.802 2 8-.157 3.773-1.824 4.773-5 3 1.517-.011 2.684-.677 3.5-2 .634-3.055.468-6.055-.5-9Z" style="opacity:1"/><path fill="#b8b2b0" d="M28.5 122.5c1.333 0 2 .667 2 2-1.333 0-2-.667-2-2Z" style="opacity:1"/><path fill="#826862" d="M26.5 119.5c0 .667.333 1 1 1l-1 2c-1.373 4.343-1.04 8.676 1 13-.992.172-1.658-.162-2-1-1.72-3.389-2.387-7.056-2-11v-4h3Z" style="opacity:1"/><path fill="#fef8d7" d="M83.5 95.5c-5.19-.658-7.523 1.675-7 7 3.998 7.308 6.164 15.308 6.5 24 .717.544 1.217 1.211 1.5 2h-2c-1.683-3.705-2.516-7.705-2.5-12-6.094-6.646-6.928-13.812-2.5-21.5 2.212-.79 4.212-.623 6 .5Z" style="opacity:1"/><path fill="#74abb0" d="M215.5 123.5a8.43 8.43 0 0 1 4 .5 36.633 36.633 0 0 1 4 6.5 3741.969 3741.969 0 0 0-8-7Z" style="opacity:1"/><path fill="#efd87d" d="M213.5 123.5c.616 1.917 1.95 3.084 4 3.5-1.333 1-1.333 2 0 3 1.525 1.009 3.192 1.509 5 1.5a20.69 20.69 0 0 0 1 5 5.727 5.727 0 0 0-3-1 6.547 6.547 0 0 1-3-3c-1.008-1.839-2.508-3.172-4.5-4-.78-1.887-.613-3.554.5-5Z" style="opacity:1"/><path fill="#a57743" d="M23.5 123.5c-.387 3.944.28 7.611 2 11l-3-2c-.869-2.217-1.202-4.55-1-7 0-1.333.667-2 2-2Z" style="opacity:1"/><path fill="#341e12" d="M197.5 71.5c.665 1.87 1.331 3.87 2 6l2 27a168.522 168.522 0 0 0 2 6c.423 7 .923 14 1.5 21a481.528 481.528 0 0 1 2.5-40h3a51.56 51.56 0 0 1-1 7 192.991 192.991 0 0 0-2 19 200.09 200.09 0 0 1 1 27 111.62 111.62 0 0 1-4 10.5c.069 1.986.735 3.486 2 4.5-.418.722-1.084 1.222-2 1.5l1 1a31.894 31.894 0 0 0-6 1.5h-3v-2c-1.219-6.522-.886-12.856 1-19 .967-1.306 2.301-1.973 4-2 2.405-11.798 1.572-23.465-2.5-35l-1 10a98.432 98.432 0 0 1-.5-14v-30Z" style="opacity:1"/><path fill="#eff3b3" d="M213.5 123.5h2c2.641 2.304 5.308 4.638 8 7-.172.992.162 1.658 1 2 .302 2.559-.032 4.893-1 7v-3a20.69 20.69 0 0 1-1-5c-1.808.009-3.475-.491-5-1.5-1.333-1-1.333-2 0-3-2.05-.416-3.384-1.583-4-3.5Z" style="opacity:1"/><path fill="#36332b" d="M26.5 122.5c.438 1.006 1.104 1.006 2 0 0 1.333.667 2 2 2-.48 3.11-1.146 6.443-2 10h7v1h-8c-2.04-4.324-2.373-8.657-1-13Z" style="opacity:1"/><path fill="#ebc568" d="M67.5 129.5h8c-5.103 1.943-10.437 3.276-16 4h-2a310.678 310.678 0 0 1 4-3c2.235.295 4.235-.039 6-1Z" style="opacity:1"/><path fill="#e8e0b1" d="M136.5 127.5c1.897 2.198 2.897 4.864 3 8-2.193-2.022-3.193-4.689-3-8Z" style="opacity:1"/><path fill="#492b19" d="M197.5 101.5a98.432 98.432 0 0 0 .5 14l1-10c4.072 11.535 4.905 23.202 2.5 35-1.699.027-3.033.694-4 2a42.659 42.659 0 0 1 2-15.5c-.028-1.07-.361-1.903-1-2.5-.709-.904-1.709-1.237-3-1 .601-7.465 1.268-14.798 2-22Z" style="opacity:1"/><path fill="#d09c46" d="m22.5 132.5 3 2c.342.838 1.008 1.172 2 1 1.277 1.398 2.943 2.064 5 2 1.53-.14 2.53-.807 3-2h4c.683 1.676 2.017 2.343 4 2a51.45 51.45 0 0 0-13 5c-.774 4.105.892 7.105 5 9 1.16 1.75 2.826 2.75 5 3v1c-2.582-.475-4.582.192-6 2-2.034-1.091-3.368-2.757-4-5-.722-.418-1.222-1.084-1.5-2a18.984 18.984 0 0 1-2.5 7c-.607-.124-.94-.457-1-1-.311-.978-.978-1.645-2-2a197.706 197.706 0 0 0-5-15c.51-2.834 1.844-5.168 4-7Z" style="opacity:1"/><path fill="#e6b454" d="M195.5 123.5c.268 1.599-.066 2.932-1 4h-1c-3.05-.577-5.05.59-6 3.5-4.052 1.686-7.719 3.852-11 6.5a64.596 64.596 0 0 1-13 5l-4 1a129.89 129.89 0 0 0 16-9l16-10c1.208-.734 2.541-1.067 4-1Z" style="opacity:1"/><path fill="#986f38" d="M2.5 124.5h3a2390.603 2390.603 0 0 0 4.5 51 76.653 76.653 0 0 0 4 9c2.364 1.656 4.197 3.656 5.5 6a31.571 31.571 0 0 1 2.5 9c2.826 1.417 2.993 2.917.5 4.5 1.704 2.237 2.704 4.737 3 7.5 1.846-.278 3.18.389 4 2-1.13 1.122-1.797 2.456-2 4l-5 2c-2.412-.194-3.412-1.527-3-4-2.097-.497-3.93-.83-5.5-1-.72-1.612-.554-3.112.5-4.5-2.019-3.242-2.852-6.742-2.5-10.5a32.46 32.46 0 0 1 3 7c.667-4 .667-8 0-12a97.704 97.704 0 0 1-11.5-17c.449-8.392.782-16.892 1-25.5.074-9.338-.592-18.504-2-27.5Z" style="opacity:1"/><path fill="#5c390e" d="M57.5 133.5h2c-1.602 1.574-3.602 2.241-6 2v-1l4-1Z" style="opacity:1"/><path fill="#26110c" d="M97.5 127.5c8.34-.166 16.673 0 25 .5.935 2.381 1.268 4.881 1 7.5-1.174 1.014-1.84 2.347-2 4a494.993 494.993 0 0 0-17-4.5c-.556-.383-.889-.883-1-1.5-3.405-1.38-7.072-2.046-11-2-5.394.134-10.894.468-16.5 1a197.647 197.647 0 0 1-20.5 9.5c-4.372 3.779-8.038 7.946-11 12.5h-4c-2.174-.25-3.84-1.25-5-3 2.772.458 5.439.458 8 0 1.14-.925 1.14-1.759 0-2.5 1.835-.928 2.168-2.094 1-3.5 1.131-1.104 1.965-.771 2.5 1 .7-1.532 1.866-2.532 3.5-3 .886-.825 1.219-1.825 1-3-2.657-.33-5.324-.663-8-1a141.318 141.318 0 0 1-13 3 51.45 51.45 0 0 1 13-5 53.773 53.773 0 0 1 10-2c2.398.241 4.398-.426 6-2 5.563-.724 10.897-2.057 16-4h1c2.12.175 4.12-.159 6-1h2c4.31-.58 8.643-.914 13-1Z" style="opacity:1"/><path fill="#541d1f" d="M103.5 133.5c.111.617.444 1.117 1 1.5a494.993 494.993 0 0 1 17 4.5c-.526 1.73-1.526 3.064-3 4a166.681 166.681 0 0 0-13-6.5c-7.512-.822-14.845-.655-22 .5a24.935 24.935 0 0 0-7 .5 221.59 221.59 0 0 1-23 11.5c-1.901 1.435-2.234 3.102-1 5-.333 1-1 1.667-2 2a41.67 41.67 0 0 1-6-2c1.478.262 2.811-.071 4-1 1.846-6.024 5.846-9.19 12-9.5a75.176 75.176 0 0 1 15-8c9.114-2.176 18.447-3.01 28-2.5Z" style="opacity:1"/><path fill="#97b1a4" d="M224.5 132.5c.934 1.068 1.268 2.401 1 4 .329 2.728-.337 5.062-2 7v-4c.968-2.107 1.302-4.441 1-7Z" style="opacity:1"/><path fill="#ae803e" d="M8.5 105.5h1a37.093 37.093 0 0 0 1.5 12 33.55 33.55 0 0 1 4 14c3.324 2.193 3.157 3.526-.5 4a37.672 37.672 0 0 0 3.5 13c1.073 7.99 2.073 15.99 3 24 1.328 4.644 3.161 8.977 5.5 13 2.264 5.674 2.93 11.174 2 16.5a190.805 190.805 0 0 0 6 10.5 39.407 39.407 0 0 1-7 5c.203-1.544.87-2.878 2-4-.82-1.611-2.154-2.278-4-2-.296-2.763-1.296-5.263-3-7.5 2.493-1.583 2.326-3.083-.5-4.5a31.571 31.571 0 0 0-2.5-9c-.983-5.448-2.65-10.614-5-15.5.457-.414.79-.914 1-1.5a48.352 48.352 0 0 1-3.5-14 634.2 634.2 0 0 0-4.5-53c0-.667.333-1 1-1Z" style="opacity:1"/><path fill="#866e45" d="M27.5 135.5h8c-.47 1.193-1.47 1.86-3 2-2.057.064-3.723-.602-5-2Z" style="opacity:1"/><path fill="#9f6230" d="M193.5 127.5h1c.106 3.115-.894 5.781-3 8a8.43 8.43 0 0 0-4 .5l-7 7a8.43 8.43 0 0 1-4 .5c4.267-6.28 9.934-10.613 17-13v-3Z" style="opacity:1"/><path fill="#7f3136" d="M118.5 143.5a5.576 5.576 0 0 0-3 1c-8.287-4.81-17.287-6.31-27-4.5-4.295.569-8.295 1.736-12 3.5h-5a60.147 60.147 0 0 1 12-6c7.155-1.155 14.488-1.322 22-.5 4.52 2.024 8.853 4.19 13 6.5Z" style="opacity:1"/><path fill="#351113" d="M103.5 133.5c-9.553-.51-18.886.324-28 2.5a75.176 75.176 0 0 0-15 8c-6.154.31-10.154 3.476-12 9.5-1.189.929-2.522 1.262-4 1 2.962-4.554 6.628-8.721 11-12.5a197.647 197.647 0 0 0 20.5-9.5 236.996 236.996 0 0 1 16.5-1c3.928-.046 7.595.62 11 2Z" style="opacity:1"/><path fill="#fde468" d="M119.5 149.5c-.543-.06-.876-.393-1-1 .595-2.817 1.928-5.15 4-7a19.048 19.048 0 0 0 1-6h1c1.517-.011 2.684-.677 3.5-2a58.732 58.732 0 0 0 8.5 21c1.402.365 2.402 1.199 3 2.5a136.954 136.954 0 0 1 1 22.5c-2.544.396-4.711-.271-6.5-2a244.47 244.47 0 0 1-4.5-15 32.466 32.466 0 0 1-6.5-11c-.816-1.323-1.983-1.989-3.5-2Z" style="opacity:1"/><path fill="#e5e5dc" d="M175.5 134.5a129.89 129.89 0 0 1-16 9l-10 1c2.714-1.458 5.714-2.458 9-3a6.802 6.802 0 0 0-3-1.5c4.028-.392 8.028-.892 12-1.5v-3l8-1Z" style="opacity:1"/><path fill="#895c27" d="M220.5 135.5a5.727 5.727 0 0 1 3 1v7c-1.4.6-2.4 1.6-3 3v-11Z" style="opacity:1"/><path fill="#9d4044" d="m118.5 143.5-3 4-4 2c.268-1.599-.066-2.932-1-4-.111-.617-.444-1.117-1-1.5a57.202 57.202 0 0 0-10-2.5 792.993 792.993 0 0 1-21 3c-.342-.838-1.008-1.172-2-1 3.705-1.764 7.705-2.931 12-3.5 9.713-1.81 18.713-.31 27 4.5a5.576 5.576 0 0 1 3-1Z" style="opacity:1"/><path fill="#190606" d="M35.5 151.5c-4.108-1.895-5.774-4.895-5-9a141.318 141.318 0 0 0 13-3c2.676.337 5.343.67 8 1 .219 1.175-.114 2.175-1 3-1.634.468-2.8 1.468-3.5 3-.535-1.771-1.369-2.104-2.5-1 1.168 1.406.835 2.572-1 3.5 1.14.741 1.14 1.575 0 2.5-2.561.458-5.228.458-8 0Z" style="opacity:1"/><path fill="#8b4f2e" d="M191.5 135.5c-3.298 4.503-7.631 7.669-13 9.5a61.85 61.85 0 0 1-11 10.5v-2c3.439-2.831 6.439-6.164 9-10a8.43 8.43 0 0 0 4-.5l7-7a8.43 8.43 0 0 1 4-.5Z" style="opacity:1"/><path fill="#5f2c14" d="M195.5 123.5c1.291-.237 2.291.096 3 1a508.674 508.674 0 0 0-4 24c-3.996 1.089-7.996 2.922-12 5.5-8.97.757-15.637 5.257-20 13.5-4.952 11.619-5.286 23.286-1 35v3h-1a36.27 36.27 0 0 0-3-10c-.645-9.521.188-18.855 2.5-28 1.609-3.278 3.943-5.944 7-8a4.934 4.934 0 0 0 .5-3v-1a61.85 61.85 0 0 0 11-10.5c5.369-1.831 9.702-4.997 13-9.5 2.106-2.219 3.106-4.885 3-8 .934-1.068 1.268-2.401 1-4Z" style="opacity:1"/><path fill="#331309" d="M217.5 132.5a6.547 6.547 0 0 0 3 3v11a5.727 5.727 0 0 0-1 3 67.16 67.16 0 0 1-9 7c-1.071-4.178-1.071-8.511 0-13l1.5-12a3.647 3.647 0 0 1 1.5-1c1.122 1.13 2.456 1.797 4 2Z" style="opacity:1"/><path fill="#f3b34e" d="M176.5 137.5a326.808 326.808 0 0 0-21 22c-.198-3.757 1.135-6.757 4-9 .953-2.926 2.287-5.593 4-8a64.596 64.596 0 0 0 13-5Z" style="opacity:1"/><path fill="#5c8bb6" d="M225.5 136.5h1c.119 3.847-.547 7.514-2 11-2.014-.108-3.68.558-5 2a5.727 5.727 0 0 1 1-3c.6-1.4 1.6-2.4 3-3 1.663-1.938 2.329-4.272 2-7Z" style="opacity:1"/><path fill="#6a2021" d="M83.5 137.5a60.147 60.147 0 0 0-12 6c-4.587 3.309-9.587 5.975-15 8a11.371 11.371 0 0 0-2 2.5c1.307 2.324 3.307 3.657 6 4-1.634.494-3.3.66-5 .5h-4a108.806 108.806 0 0 0-11-3v-1h4a41.67 41.67 0 0 0 6 2c1-.333 1.667-1 2-2-1.234-1.898-.901-3.565 1-5a221.59 221.59 0 0 0 23-11.5 24.935 24.935 0 0 1 7-.5Z" style="opacity:1"/><path fill="#cd6166" d="M110.5 145.5c.934 1.068 1.268 2.401 1 4a53.427 53.427 0 0 1-16 8h-4c2.37-2.292 1.87-4.292-1.5-6-1.412 1.423-2.579 1.256-3.5-.5.837-1.011 1.17-2.178 1-3.5 2.726.236 5.059-.597 7-2.5a47.73 47.73 0 0 1 16 .5Z" style="opacity:1"/><path fill="#b84148" d="M110.5 145.5a47.73 47.73 0 0 0-16-.5c-1.941 1.903-4.274 2.736-7 2.5.17 1.322-.163 2.489-1 3.5.921 1.756 2.088 1.923 3.5.5 3.37 1.708 3.87 3.708 1.5 6-3.307.551-6.64.884-10 1a102.486 102.486 0 0 1-16-4c2.217-3.047 5.217-4.547 9-4.5a33.655 33.655 0 0 1 4-5.5 792.993 792.993 0 0 0 21-3 57.202 57.202 0 0 1 10 2.5c.556.383.889.883 1 1.5Z" style="opacity:1"/><path fill="#c39143" d="M9.5 105.5c.617.111 1.117.444 1.5 1 .9 3.671 1.734 7.337 2.5 11a72.268 72.268 0 0 1 3 8c-.946 1.758-.946 3.425 0 5a63.98 63.98 0 0 0 5-5c-.202 2.45.131 4.783 1 7-2.156 1.832-3.49 4.166-4 7a197.706 197.706 0 0 1 5 15c1.022.355 1.689 1.022 2 2-.93 2.146-.597 4.312 1 6.5a66.751 66.751 0 0 0-2 5.5 743.565 743.565 0 0 0 3 14 10.022 10.022 0 0 1-1 3c-2.339-4.023-4.172-8.356-5.5-13-.927-8.01-1.927-16.01-3-24a37.672 37.672 0 0 1-3.5-13c3.657-.474 3.824-1.807.5-4a33.55 33.55 0 0 0-4-14 37.093 37.093 0 0 1-1.5-12Z" style="opacity:1"/><path fill="#a3793e" d="m5.5 103.5 2 3a634.2 634.2 0 0 1 4.5 53 48.352 48.352 0 0 0 3.5 14 3.646 3.646 0 0 1-1 1.5c2.35 4.886 4.017 10.052 5 15.5-1.303-2.344-3.136-4.344-5.5-6a76.653 76.653 0 0 1-4-9 2390.603 2390.603 0 0 1-4.5-51h-3c.172-.992-.162-1.658-1-2-.316-3.478.184-6.812 1.5-10l2 4a84.94 84.94 0 0 0 .5-13Z" style="opacity:1"/><path fill="#912a2b" d="M71.5 143.5h5c.992-.172 1.658.162 2 1a33.655 33.655 0 0 0-4 5.5c-3.783-.047-6.783 1.453-9 4.5a102.486 102.486 0 0 0 16 4 85.021 85.021 0 0 1-26 0c1.7.16 3.366-.006 5-.5-2.693-.343-4.693-1.676-6-4a11.371 11.371 0 0 1 2-2.5c5.413-2.025 10.413-4.691 15-8Z" style="opacity:1"/><path fill="#ca8b3e" d="M193.5 127.5v3c-7.066 2.387-12.733 6.72-17 13-2.561 3.836-5.561 7.169-9 10-2.262 2.472-4.928 4.472-8 6l-4 2v-2a326.808 326.808 0 0 1 21-22c3.281-2.648 6.948-4.814 11-6.5.95-2.91 2.95-4.077 6-3.5Z" style="opacity:1"/><path fill="#fbd491" d="M115.5 147.5c.203 1.89-.463 3.39-2 4.5a91.67 91.67 0 0 1-18 5.5 53.427 53.427 0 0 0 16-8l4-2Z" style="opacity:1"/><path fill="#5e7aa4" d="M219.5 149.5c-3.43 4.1-6.43 8.6-9 13.5a135.67 135.67 0 0 1-10 3c-.752.671-1.086 1.504-1 2.5-.768.763-1.268 1.763-1.5 3a308.5 308.5 0 0 1-1.5 25v-25c.268-1.599-.066-2.932-1-4 1.639-.973 2.973-2.306 4-4a31.894 31.894 0 0 1 6-1.5l-1-1c.916-.278 1.582-.778 2-1.5a308.607 308.607 0 0 0 4-3 67.16 67.16 0 0 0 9-7Z" style="opacity:1"/><path fill="#fdea7f" d="M123.5 135.5a19.048 19.048 0 0 1-1 6c-2.072 1.85-3.405 4.183-4 7 .124.607.457.94 1 1 1.826 8.63 5.66 16.297 11.5 23-.662 4.97 1.171 8.47 5.5 10.5a14.748 14.748 0 0 1 3 4.5l1-.5c.956-3.394 1.289-6.894 1-10.5.993 8.15 1.326 16.483 1 25h-11c-3.543-1.52-6.876-3.52-10-6-1.277-3.052-3.61-4.385-7-4-.12 3.078-1.12 5.745-3 8a138.277 138.277 0 0 1 4-15c-1.189-.929-2.522-1.262-4-1v-12h-4a128.748 128.748 0 0 0-2-11 40.582 40.582 0 0 0-14-2v-1h4a91.67 91.67 0 0 0 18-5.5c1.537-1.11 2.203-2.61 2-4.5l3-4c1.474-.936 2.474-2.27 3-4 .16-1.653.826-2.986 2-4Z" style="opacity:1"/><path fill="#fcde5d" d="M158.5 145.5c.567.92-.099 1.254-2 1-1.051 5.106-3.384 9.439-7 13h-1c.097-5.032 1.097-9.698 3-14h7Z" style="opacity:1"/><path fill="#f9c952" d="M163.5 142.5c-1.713 2.407-3.047 5.074-4 8-2.865 2.243-4.198 5.243-4 9a44.433 44.433 0 0 0-5.5 3 4.934 4.934 0 0 1-.5-3c3.616-3.561 5.949-7.894 7-13 1.901.254 2.567-.08 2-1l1-2 4-1Z" style="opacity:1"/><path fill="#481e0e" d="M198.5 124.5c.639.597.972 1.43 1 2.5a42.659 42.659 0 0 0-2 15.5c-1.886 6.144-2.219 12.478-1 19-1.175.219-2.175-.114-3-1-.637-1.803-1.803-3.136-3.5-4-1.435 1.711-3.269 2.878-5.5 3.5a60.244 60.244 0 0 1-18 5 16.58 16.58 0 0 0-4 2.5c4.363-8.243 11.03-12.743 20-13.5 4.004-2.578 8.004-4.411 12-5.5a508.674 508.674 0 0 1 4-24Z" style="opacity:1"/><path fill="#4992e1" d="M229.5 144.5v25c-3.428-1.781-7.094-3.115-11-4l-4 3c-1.352-1.018-2.352-2.351-3-4a6.846 6.846 0 0 1-4 1v6h-3v-3h-5c-.086-.996.248-1.829 1-2.5a135.67 135.67 0 0 0 10-3c2.57-4.9 5.57-9.4 9-13.5 1.32-1.442 2.986-2.108 5-2 1.453-3.486 2.119-7.153 2-11 .888 1.533 1.388 3.866 1.5 7 .383.556.883.889 1.5 1Z" style="opacity:1"/><path fill="#fee360" d="M89.5 159.5c1.068.934 2.401 1.268 4 1-.468 3.442.698 6.109 3.5 8-.064 6.264.936 12.264 3 18 2.982 1.696 4.316 4.363 4 8 2.159 2.628 3.659 5.628 4.5 9-2.565 4.331-4.399 8.997-5.5 14a33.84 33.84 0 0 0-4.5 6h-3c-.18-2.454.487-4.621 2-6.5-.598-1.301-1.598-2.135-3-2.5-.929-1.189-1.262-2.522-1-4h-4v-3h-4a38.477 38.477 0 0 1-2-12c-1.322.17-2.489-.163-3.5-1-2.072-7.021-1.572-13.854 1.5-20.5-.75-4.124-.75-8.291 0-12.5-1.599.268-2.932-.066-4-1 4.1.263 8.1-.07 12-1Z" style="opacity:1"/><path fill="#3c160a" d="M196.5 161.5v2c-3.068.02-6.235.02-9.5 0a8.43 8.43 0 0 0-.5 4c-1.788.285-3.455-.048-5-1a4.457 4.457 0 0 1 2-1.5c-6.027-.461-11.86.372-17.5 2.5a63.343 63.343 0 0 1-6 12 25.238 25.238 0 0 0 0 10 127.108 127.108 0 0 1 2.5 10v1c-.838.342-1.172 1.008-1 2-4.286-11.714-3.952-23.381 1-35a16.58 16.58 0 0 1 4-2.5 60.244 60.244 0 0 0 18-5c2.231-.622 4.065-1.789 5.5-3.5 1.697.864 2.863 2.197 3.5 4 .825.886 1.825 1.219 3 1Z" style="opacity:1"/><path fill="#320f08" d="M196.5 163.5h3c-1.027 1.694-2.361 3.027-4 4a802.777 802.777 0 0 0-5 4 51.569 51.569 0 0 0-7 1c.17 1.322-.163 2.489-1 3.5-1.809 2.238-4.142 3.405-7 3.5v-8c-6.929-.449-11.762 2.551-14.5 9-1.081 3.468-.415 6.468 2 9 .497 2.646.664 5.313.5 8l-1 2a127.108 127.108 0 0 0-2.5-10 25.238 25.238 0 0 1 0-10 63.343 63.343 0 0 0 6-12c5.64-2.128 11.473-2.961 17.5-2.5a4.457 4.457 0 0 0-2 1.5c1.545.952 3.212 1.285 5 1a8.43 8.43 0 0 1 .5-4c3.265.02 6.432.02 9.5 0Z" style="opacity:1"/><path fill="#c4914e" d="M159.5 159.5c-4.001 9.09-5.001 18.423-3 28-.306 2.885.027 5.552 1 8a168.29 168.29 0 0 1 1 23h-1a319.901 319.901 0 0 0-6-48c-.437-3.865.896-6.865 4-9l4-2Z" style="opacity:1"/><path fill="#fdd556" d="M73.5 160.5h4c1.068.934 2.401 1.268 4 1-.75 4.209-.75 8.376 0 12.5-3.072 6.646-3.572 13.479-1.5 20.5 1.011.837 2.178 1.17 3.5 1 .034 4.13.701 8.13 2 12h4v3h4c-.262 1.478.071 2.811 1 4 1.402.365 2.402 1.199 3 2.5-1.513 1.879-2.18 4.046-2 6.5h3c-.709.904-1.709 1.237-3 1v5h-8a76.691 76.691 0 0 1-3-14c-4.665-7.594-9.331-15.928-14-25 2.264-5.513 2.597-11.179 1-17a87.758 87.758 0 0 0 2-13Z" style="opacity:1"/><path fill="#834e27" d="M167.5 156.5a4.934 4.934 0 0 1-.5 3c-3.057 2.056-5.391 4.722-7 8-2.312 9.145-3.145 18.479-2.5 28-.973-2.448-1.306-5.115-1-8-1.656-10.845.844-20.512 7.5-29a18.473 18.473 0 0 1 3.5-2Z" style="opacity:1"/><path fill="#5087dc" d="M229.5 169.5v14h-6v-3c-2.321.271-4.321-.396-6-2a4.457 4.457 0 0 0-1.5 2c-4.962-2.902-8.962-1.902-12 3-.111-4.879-1.278-5.212-3.5-1a4.457 4.457 0 0 1-1.5-2 24.935 24.935 0 0 0-.5 7v13h-7c1.419-.951 3.085-1.284 5-1v-3a308.5 308.5 0 0 0 1.5-25c.232-1.237.732-2.237 1.5-3h5v3h3v-6a6.846 6.846 0 0 0 4-1c.648 1.649 1.648 2.982 3 4l4-3c3.906.885 7.572 2.219 11 4Z" style="opacity:1"/><path fill="#faba49" d="M62.5 160.5c1.492 1.107 2.492 2.607 3 4.5-1.14 2.163-1.807 4.496-2 7-.149 11.213 1.684 22.046 5.5 32.5.497 2.31.663 4.643.5 7h4c.857 3.049.857 6.049 0 9-1.595.934-3.261.934-5 0-1.085-2.087-2.751-3.42-5-4a3310.516 3310.516 0 0 1-11-17c.803-.923.97-1.923.5-3h-3c-1.022-6.18-.522-12.18 1.5-18a9.264 9.264 0 0 1-2-2.5 38.87 38.87 0 0 0 2-15.5h11Z" style="opacity:1"/><path fill="#fdc951" d="M62.5 160.5h11a87.758 87.758 0 0 1-2 13c1.597 5.821 1.264 11.487-1 17 4.669 9.072 9.335 17.406 14 25a76.691 76.691 0 0 0 3 14h-7a14.694 14.694 0 0 0-3-3.5 51.683 51.683 0 0 1-9-5.5c1.739.934 3.405.934 5 0 .857-2.951.857-5.951 0-9h-4a24.939 24.939 0 0 0-.5-7c-3.816-10.454-5.649-21.287-5.5-32.5.193-2.504.86-4.837 2-7-.508-1.893-1.508-3.393-3-4.5Z" style="opacity:1"/><path fill="#faf2c0" d="m139.5 135.5 2 2c.781 4.616 3.448 6.949 8 7l10-1-1 2h-7c-1.903 4.302-2.903 8.968-3 14v12c.666 7.983.999 15.983 1 24-.821-3.141-1.321-6.475-1.5-10a8.43 8.43 0 0 0-.5 4h-3c.603 5.119-.064 9.785-2 14a279.797 279.797 0 0 0 0-44 85.398 85.398 0 0 0 2-8c.491-2.652 2.158-4.152 5-4.5-6.016-1.515-9.35-5.349-10-11.5Z" style="opacity:1"/><path fill="#f1b047" d="M91.5 157.5v1c-.992-.172-1.658.162-2 1-3.9.93-7.9 1.263-12 1h-26a38.87 38.87 0 0 1-2 15.5 9.264 9.264 0 0 0 2 2.5c-2.022 5.82-2.522 11.82-1.5 18h3c.47 1.077.303 2.077-.5 3-1.791-.134-3.458.199-5 1 .166-6.009 0-12.009-.5-18a20.499 20.499 0 0 1-3.5-6.5c1.315-5.47 1.315-10.97 0-16.5a16.874 16.874 0 0 1 8-1h4a85.021 85.021 0 0 0 26 0 76.923 76.923 0 0 0 10-1Z" style="opacity:1"/><path fill="#fde773" d="M127.5 125.5c1.788-.285 3.455.048 5 1 .38 3.075 1.713 5.575 4 7.5-1.477 3.07-.81 5.57 2 7.5a10.305 10.305 0 0 1-1 3c2.103 2.77 4.437 5.104 7 7a85.398 85.398 0 0 1-2 8c-.989 5.475-1.322 11.142-1 17 .289 3.606-.044 7.106-1 10.5l-1 .5a14.748 14.748 0 0 0-3-4.5c-4.329-2.03-6.162-5.53-5.5-10.5-5.84-6.703-9.674-14.37-11.5-23 1.517.011 2.684.677 3.5 2a32.466 32.466 0 0 0 6.5 11 244.47 244.47 0 0 0 4.5 15c1.789 1.729 3.956 2.396 6.5 2 .284-7.544-.05-15.044-1-22.5-.598-1.301-1.598-2.135-3-2.5a58.732 58.732 0 0 1-8.5-21c-.816 1.323-1.983 1.989-3.5 2a33.724 33.724 0 0 1 1.5-11c.383.556.883.889 1.5 1Z" style="opacity:1"/><path fill="#240805" d="M190.5 171.5a2033.878 2033.878 0 0 1-15 12.5c-4.608 4.099-8.608 8.599-12 13.5a32.462 32.462 0 0 0-.5-8c-2.415-2.532-3.081-5.532-2-9 2.738-6.449 7.571-9.449 14.5-9v8c2.858-.095 5.191-1.262 7-3.5.837-1.011 1.17-2.178 1-3.5a51.569 51.569 0 0 1 7-1Z" style="opacity:1"/><path fill="#fee774" d="M91.5 158.5c4.8-.15 9.467.516 14 2a128.748 128.748 0 0 1 2 11h4v12c1.478-.262 2.811.071 4 1a138.277 138.277 0 0 0-4 15c-1.527 3.713-2.527 7.713-3 12-2.93 5.96-5.93 11.96-9 18h-4v-5c1.291.237 2.291-.096 3-1a33.84 33.84 0 0 1 4.5-6c1.101-5.003 2.935-9.669 5.5-14-.841-3.372-2.341-6.372-4.5-9 .316-3.637-1.018-6.304-4-8-2.064-5.736-3.064-11.736-3-18-2.802-1.891-3.968-4.558-3.5-8-1.599.268-2.932-.066-4-1 .342-.838 1.008-1.172 2-1Z" style="opacity:1"/><path fill="#e7b965" d="M148.5 159.5h1a4.934 4.934 0 0 0 .5 3 44.433 44.433 0 0 1 5.5-3v2c-3.104 2.135-4.437 5.135-4 9a319.901 319.901 0 0 1 6 48v11h-1a252.147 252.147 0 0 1-2.5-31c-.025-4.453-1.192-8.453-3.5-12 .198-5.25-.469-10.25-2-15v-12Z" style="opacity:1"/><path fill="#527fd8" d="M229.5 183.5v16h-6v-4a98.432 98.432 0 0 1-14-.5l-2.5-2.5c-.758 2.269-.591 4.436.5 6.5-1.467 1.098-2.301 2.598-2.5 4.5-.232-5.59-1.399-10.923-3.5-16h-3c-.163-2.357.003-4.69.5-7a4.457 4.457 0 0 0 1.5 2c2.222-4.212 3.389-3.879 3.5 1 3.038-4.902 7.038-5.902 12-3a4.457 4.457 0 0 1 1.5-2c1.679 1.604 3.679 2.271 6 2v3h6Z" style="opacity:1"/><path fill="#c28b35" d="M30.5 152.5c-2.646 5.411-2.646 10.911 0 16.5a3.942 3.942 0 0 1-1 2c2.196 1.222 3.696 3.056 4.5 5.5.473 9.431 2.64 18.431 6.5 27a9.107 9.107 0 0 0-1 5c-1.085 2.087-2.751 3.42-5 4a190.805 190.805 0 0 1-6-10.5c.93-5.326.264-10.826-2-16.5.482-.916.815-1.916 1-3a743.565 743.565 0 0 1-3-14 66.751 66.751 0 0 1 2-5.5c-1.597-2.188-1.93-4.354-1-6.5.06.543.393.876 1 1a18.984 18.984 0 0 0 2.5-7c.278.916.778 1.582 1.5 2Z" style="opacity:1"/><path fill="#9c6432" d="M167.5 153.5v3a18.473 18.473 0 0 0-3.5 2c-6.656 8.488-9.156 18.155-7.5 29-2.001-9.577-1.001-18.91 3-28 3.072-1.528 5.738-3.528 8-6Z" style="opacity:1"/><path fill="#cfc7c9" d="M195.5 167.5c.934 1.068 1.268 2.401 1 4-1.542.801-3.208 1.134-5 1-1 4.333-3.667 7-8 8-.312 4.253-2.645 6.586-7 7-3.904 5.204-8.237 9.871-13 14v1c-.838-.342-1.172-1.008-1-2v-1l1-2c3.392-4.901 7.392-9.401 12-13.5a2033.878 2033.878 0 0 0 15-12.5 802.777 802.777 0 0 1 5-4Z" style="opacity:1"/><path fill="#d3983a" d="M30.5 152.5c.632 2.243 1.966 3.909 4 5 .806 1.497 1.472 3.164 2 5 1.027 6.159 1.027 12.493 0 19a81.73 81.73 0 0 1 3.5 15c1.612 2.979 4.112 4.312 7.5 4v1c-1 .333-1.667 1-2 2-1.98 1.644-3.98 3.31-6 5a9.107 9.107 0 0 1 1-5c-3.86-8.569-6.027-17.569-6.5-27-.804-2.444-2.304-4.278-4.5-5.5a3.942 3.942 0 0 0 1-2c-2.646-5.589-2.646-11.089 0-16.5Z" style="opacity:1"/><path fill="#e7ebf8" d="M196.5 171.5v28c-1.915-.284-3.581.049-5 1-9.326.5-18.659.833-28 1 4.763-4.129 9.096-8.796 13-14 4.355-.414 6.688-2.747 7-7 4.333-1 7-3.667 8-8 1.792.134 3.458-.199 5-1Z" style="opacity:1"/><path fill="#fdee9b" d="M142.5 159.5a279.797 279.797 0 0 1 0 44c-4.149.58-7.816-.086-11-2h11c.326-8.517-.007-16.85-1-25-.322-5.858.011-11.525 1-17Z" style="opacity:1"/><path fill="#e0a23c" d="M40.5 155.5c3.822.836 7.49 1.836 11 3a16.874 16.874 0 0 0-8 1c1.315 5.53 1.315 11.03 0 16.5a20.499 20.499 0 0 0 3.5 6.5c.5 5.991.666 11.991.5 18-3.388.312-5.888-1.021-7.5-4a81.73 81.73 0 0 0-3.5-15c1.027-6.507 1.027-12.841 0-19-.528-1.836-1.194-3.503-2-5 1.418-1.808 3.418-2.475 6-2Z" style="opacity:1"/><path fill="#8d6836" d="M-.5 122.5c.896 1.006 1.562 1.006 2 0 .838.342 1.172 1.008 1 2 1.408 8.996 2.074 18.162 2 27.5a907.108 907.108 0 0 1-1 25.5 97.704 97.704 0 0 0 11.5 17c.667 4 .667 8 0 12a32.46 32.46 0 0 0-3-7c-.352 3.758.481 7.258 2.5 10.5-1.054 1.388-1.22 2.888-.5 4.5 1.57.17 3.403.503 5.5 1-.412 2.473.588 3.806 3 4-1.374 2.459-3.54 3.459-6.5 3-2.586-.002-4.586-1.002-6-3a108.092 108.092 0 0 1-5.5-32 9.107 9.107 0 0 1-5 1v-66Z" style="opacity:1"/><path fill="#fbe493" d="M148.5 171.5c1.531 4.75 2.198 9.75 2 15 1.105 10.159 1.105 20.159 0 30h-2c1.248-3.238 1.915-6.738 2-10.5-.002-3.352-.335-6.518-1-9.5v-1a288.983 288.983 0 0 0-1-24Z" style="opacity:1"/><path fill="#5579d6" d="M198.5 187.5h3c2.101 5.077 3.268 10.41 3.5 16 .199-1.902 1.033-3.402 2.5-4.5-1.091-2.064-1.258-4.231-.5-6.5l2.5 2.5c4.655.499 9.321.666 14 .5v4h6v16c-1.548.321-2.215 1.321-2 3h-4v-7c-4.501.637-8.501-.363-12-3a9.86 9.86 0 0 0-6-1v3h-6c-.109-3.034-1.443-4.034-4-3-1.864-2.212-2.197-4.545-1-7h4v-13Z" style="opacity:1"/><path fill="#fef5c6" d="M121.5 195.5c3.124 2.48 6.457 4.48 10 6 3.184 1.914 6.851 2.58 11 2-1.804.662-3.804.995-6 1a78.192 78.192 0 0 1-10-2c-.203 1.89.463 3.39 2 4.5l-3 3c1.549-.522 3.049-.355 4.5.5a22.703 22.703 0 0 0 5-2c.991 1.439 2.324 2.439 4 3 .483.948.649 1.948.5 3h6c.386-7.898 1.386-7.898 3 0a81.883 81.883 0 0 0 1-18c.665 2.982.998 6.148 1 9.5-.085 3.762-.752 7.262-2 10.5-9.123-.091-17.79-2.091-26-6-.607.124-.94.457-1 1-1.982-2.097-2.982-4.764-3-8h-3a31.116 31.116 0 0 1 1-11c1.44 1.452 3.106 2.452 5 3Z" style="opacity:1"/><path fill="#5973c5" d="M191.5 200.5a606.7 606.7 0 0 1-14 2.5l3 1-1 1a72.367 72.367 0 0 1-12 .5c-.21-3.47-1.377-3.47-3.5 0a18.453 18.453 0 0 0-.5 6c-.722.418-1.222 1.084-1.5 2-.471 5.344-.971 10.678-1.5 16h-1a364.653 364.653 0 0 1 2-24c1.85-.742 2.516-1.742 2-3v-1c9.341-.167 18.674-.5 28-1Z" style="opacity:1"/><path fill="#9c7151" d="M157.5 195.5a36.27 36.27 0 0 1 3 10 212.116 212.116 0 0 1-2 13 168.29 168.29 0 0 0-1-23Z" style="opacity:1"/><path fill="#6f6177" d="M162.5 200.5c-.172.992.162 1.658 1 2 .516 1.258-.15 2.258-2 3v-3c-.172-.992.162-1.658 1-2Z" style="opacity:1"/><path fill="#f7d66d" d="M150.5 186.5c2.308 3.547 3.475 7.547 3.5 12a252.147 252.147 0 0 0 2.5 31h-3a50.464 50.464 0 0 0-.5-10c-.417-1.256-1.25-1.923-2.5-2v-1c1.105-9.841 1.105-19.841 0-30Z" style="opacity:1"/><path fill="#fef8d1" d="M149.5 195.5v1a81.883 81.883 0 0 1-1 18c-1.614-7.898-2.614-7.898-3 0h-6a4.934 4.934 0 0 0-.5-3c-1.676-.561-3.009-1.561-4-3a22.703 22.703 0 0 1-5 2c-1.451-.855-2.951-1.022-4.5-.5l3-3c-1.537-1.11-2.203-2.61-2-4.5a78.192 78.192 0 0 0 10 2c2.196-.005 4.196-.338 6-1 1.936-4.215 2.603-8.881 2-14h3a8.43 8.43 0 0 1 .5-4c.179 3.525.679 6.859 1.5 10Z" style="opacity:1"/><path fill="#fedc7c" d="M52.5 199.5c3.623 5.638 7.29 11.304 11 17a15.063 15.063 0 0 0-6-3c-2.726-1.592-5.726-3.592-9-6a11.99 11.99 0 0 1-1-6v-1c1.542-.801 3.209-1.134 5-1Z" style="opacity:1"/><path fill="#5773d4" d="M191.5 200.5h3c-1.197 2.455-.864 4.788 1 7 2.557-1.034 3.891-.034 4 3h6v-3a9.86 9.86 0 0 1 6 1c3.499 2.637 7.499 3.637 12 3v7h4c-.215-1.679.452-2.679 2-3v14h-16c-1.418-1.808-3.418-2.475-6-2v-4h-8v-4h-24v-4a50.464 50.464 0 0 1-10-.5 19.602 19.602 0 0 0-2-3.5 18.453 18.453 0 0 1 .5-6c2.123-3.47 3.29-3.47 3.5 0a72.367 72.367 0 0 0 12-.5l1-1-3-1a606.7 606.7 0 0 0 14-2.5Z" style="opacity:1"/><path fill="#f7cf7c" d="M47.5 201.5a11.99 11.99 0 0 0 1 6c3.274 2.408 6.274 4.408 9 6a53.102 53.102 0 0 1-2 8l2 8h-1a95.284 95.284 0 0 0-8-8.5c-1.428-.579-2.762-.412-4 .5-1.846.278-3.18-.389-4-2a77.064 77.064 0 0 0 1.5-11c1.67-1.346 2.836-3.013 3.5-5 .333-1 1-1.667 2-2Z" style="opacity:1"/><path fill="#bf9a55" d="M34.5 212.5a52.416 52.416 0 0 1 1 13h3a20.233 20.233 0 0 0-4 4h-6a45.795 45.795 0 0 0-1-12 39.407 39.407 0 0 0 7-5Z" style="opacity:1"/><path fill="#b2994e" d="M148.5 216.5h2v1a112.97 112.97 0 0 1-15-.5 341.98 341.98 0 0 0-14-4.5v-1c.06-.543.393-.876 1-1 8.21 3.909 16.877 5.909 26 6Z" style="opacity:1"/><path fill="#fef3b6" d="M121.5 195.5c-1.894-.548-3.56-1.548-5-3a31.116 31.116 0 0 0-1 11h3c.018 3.236 1.018 5.903 3 8v1c-1.878 5.446-3.211 11.112-4 17h-18c3.07-6.04 6.07-12.04 9-18 .473-4.287 1.473-8.287 3-12 1.88-2.255 2.88-4.922 3-8 3.39-.385 5.723.948 7 4Z" style="opacity:1"/><path fill="#fde463" d="M121.5 212.5a341.98 341.98 0 0 1 14 4.5c4.989.499 9.989.666 15 .5 1.25.077 2.083.744 2.5 2 .498 3.317.665 6.65.5 10h-36c.789-5.888 2.122-11.554 4-17Z" style="opacity:1"/><path fill="#736e8f" d="M160.5 205.5h1a364.653 364.653 0 0 0-2 24h-2v-11h1a212.116 212.116 0 0 0 2-13Z" style="opacity:1"/><path fill="#596ed1" d="M163.5 211.5a19.602 19.602 0 0 1 2 3.5c3.317.498 6.65.665 10 .5v4h24v4h8v4c2.582-.475 4.582.192 6 2h-53c.529-5.322 1.029-10.656 1.5-16 .278-.916.778-1.582 1.5-2Z" style="opacity:1"/><path fill="#dab063" d="M45.5 203.5c-.664 1.987-1.83 3.654-3.5 5a77.064 77.064 0 0 1-1.5 11c.82 1.611 2.154 2.278 4 2-1.648 1.826-3.648 3.16-6 4h-3a52.416 52.416 0 0 0-1-13c2.249-.58 3.915-1.913 5-4 2.02-1.69 4.02-3.356 6-5Z" style="opacity:1"/><path fill="#fde98d" d="M57.5 213.5a15.063 15.063 0 0 1 6 3c2.249.58 3.915 1.913 5 4a51.683 51.683 0 0 0 9 5.5 14.694 14.694 0 0 1 3 3.5h-23l-2-8a53.102 53.102 0 0 0 2-8Z" style="opacity:1"/><path fill="#9c7e4b" d="m22.5 219.5 5-2a45.795 45.795 0 0 1 1 12h-29v-41a9.107 9.107 0 0 0 5-1 108.092 108.092 0 0 0 5.5 32c1.414 1.998 3.414 2.998 6 3 2.96.459 5.126-.541 6.5-3Z" style="opacity:1"/><path fill="#aa7a2c" d="M56.5 229.5h-2c-2.054-2.736-4.554-5.069-7.5-7l-5 3c-.195 1.319-.028 2.653.5 4h-8a20.233 20.233 0 0 1 4-4c2.352-.84 4.352-2.174 6-4 1.238-.912 2.572-1.079 4-.5a95.284 95.284 0 0 1 8 8.5Z" style="opacity:1"/><path fill="#d49d40" d="M54.5 229.5h-12c-.528-1.347-.695-2.681-.5-4l5-3c2.946 1.931 5.446 4.264 7.5 7Z" style="opacity:1"/></svg>